<svg id="Icon_awesome-instagram" data-name="Icon awesome-instagram" xmlns="http://www.w3.org/2000/svg" width="12.209" height="12.206" viewBox="0 0 12.209 12.206">
  <path id="Icon_awesome-instagram-2" data-name="Icon awesome-instagram" d="M6.1,5.211A3.129,3.129,0,1,0,9.23,8.341,3.125,3.125,0,0,0,6.1,5.211Zm0,5.164A2.035,2.035,0,1,1,8.135,8.341,2.038,2.038,0,0,1,6.1,10.375Zm3.987-5.292a.73.73,0,1,1-.73-.73A.728.728,0,0,1,10.088,5.083Zm2.073.741a3.612,3.612,0,0,0-.986-2.558,3.636,3.636,0,0,0-2.558-.986c-1.008-.057-4.028-.057-5.036,0a3.631,3.631,0,0,0-2.558.983A3.624,3.624,0,0,0,.038,5.821C-.02,6.829-.02,9.85.038,10.857a3.612,3.612,0,0,0,.986,2.558,3.641,3.641,0,0,0,2.558.986c1.008.057,4.028.057,5.036,0a3.612,3.612,0,0,0,2.558-.986,3.636,3.636,0,0,0,.986-2.558c.057-1.008.057-4.026,0-5.033Zm-1.3,6.115A2.06,2.06,0,0,1,9.7,13.1a13.452,13.452,0,0,1-3.6.245A13.557,13.557,0,0,1,2.5,13.1a2.06,2.06,0,0,1-1.16-1.16,13.452,13.452,0,0,1-.245-3.6,13.557,13.557,0,0,1,.245-3.6A2.06,2.06,0,0,1,2.5,3.582a13.452,13.452,0,0,1,3.6-.245,13.557,13.557,0,0,1,3.6.245,2.06,2.06,0,0,1,1.16,1.16,13.452,13.452,0,0,1,.245,3.6A13.444,13.444,0,0,1,10.859,11.939Z" transform="translate(0.005 -2.238)"/>
</svg>
