<svg id="logo-corebiz-global" xmlns="http://www.w3.org/2000/svg" width="139.733" height="31.46" viewBox="0 0 139.733 31.46">
  <path id="Path_3" d="M719.7,468.461h-4.9V446.6h4.9Z" transform="translate(-611.383 -437.085)"/>
  <path id="Path_6" d="M180.935,450.842a5.427,5.427,0,0,0-4.046,1.73,6.5,6.5,0,0,0-1.653,4.71,6.574,6.574,0,0,0,1.671,4.767,5.5,5.5,0,0,0,4.1,1.747,5.034,5.034,0,0,0,3.476-1.178,5.793,5.793,0,0,0,1.73-2.662l4.33,1.577a9.831,9.831,0,0,1-3.3,4.767,9.537,9.537,0,0,1-6.23,2,10.217,10.217,0,0,1-7.635-3.153,11.639,11.639,0,0,1-.039-15.726A10.157,10.157,0,0,1,180.9,446.3a9.7,9.7,0,0,1,6.325,2A9.112,9.112,0,0,1,190.4,453.1l-4.425,1.614a5.554,5.554,0,0,0-1.633-2.735A4.842,4.842,0,0,0,180.935,450.842Z" transform="translate(-170.302 -436.844)"/>
  <path id="Path_7" d="M291.025,461.99a5.893,5.893,0,0,0,8.358.019,6.563,6.563,0,0,0,1.709-4.824,6.408,6.408,0,0,0-1.709-4.748,5.962,5.962,0,0,0-8.358,0,6.408,6.408,0,0,0-1.709,4.748A6.577,6.577,0,0,0,291.025,461.99ZM295.2,446.3a10.557,10.557,0,1,1-7.807,3.077A10.558,10.558,0,0,1,295.2,446.3Z" transform="translate(-262.652 -436.843)"/>
  <path id="Path_1" d="M414.919,446.433v5a11.568,11.568,0,0,0-1.614-.133c-3.726,0-5.565,1.823-5.565,5.869v10.978H402.8V446.358h4.806v3.495a5.455,5.455,0,0,1,2.335-2.6,7.043,7.043,0,0,1,3.667-.95A6.023,6.023,0,0,1,414.919,446.433Z" transform="translate(-358.642 -436.837)"/>
  <path id="Path_8" d="M478.694,454.953h11a4.547,4.547,0,0,0-1.5-3.249,5.678,5.678,0,0,0-4.027-1.311,5.407,5.407,0,0,0-3.859,1.368A4.738,4.738,0,0,0,478.694,454.953Zm11.586,5.357,4.5,1.311a9.3,9.3,0,0,1-3.609,4.672,11.073,11.073,0,0,1-6.521,1.842,11.711,11.711,0,0,1-8.11-3A10.267,10.267,0,0,1,473.2,457.1a10.15,10.15,0,0,1,3.247-7.768,11.883,11.883,0,0,1,15.7-.152,10.5,10.5,0,0,1,2.906,7.788,4.727,4.727,0,0,1-.133,1.557H478.553a5.19,5.19,0,0,0,1.863,3.837,6.329,6.329,0,0,0,4.259,1.52,5.3,5.3,0,0,0,5.605-3.568Z" transform="translate(-415.675 -436.838)"/>
  <path id="Path_2" d="M598.815,427.877H593.8V396.5h5.057v12.631a6.031,6.031,0,0,1,2.62-2.2,9.357,9.357,0,0,1,4.179-.893,9.219,9.219,0,0,1,7.35,3.04,12.7,12.7,0,0,1-.133,15.669,9.449,9.449,0,0,1-7.389,3.077,7.26,7.26,0,0,1-6.666-3.267Zm10.009-6.211a7.882,7.882,0,0,0,.018-9.535,5.961,5.961,0,0,0-8.395,0,6.557,6.557,0,0,0-1.633,4.748,6.818,6.818,0,0,0,1.639,4.774,5.826,5.826,0,0,0,8.376.019Z" transform="translate(-513.365 -396.5)"/>
  <path id="Path_4" d="M769.443,468.443H747.828v-4.292l13.657-13.219H747.6V446.6h21.8v4.16l-13.827,13.334h13.866v4.349Z" transform="translate(-637.952 -437.085)"/>
  <path id="Path_5" d="M869.042,529.77A3.469,3.469,0,0,1,868,527.224a3.512,3.512,0,0,1,1.045-2.565,3.387,3.387,0,0,1,2.545-1.065,3.632,3.632,0,0,1,3.628,3.628,3.386,3.386,0,0,1-1.064,2.546,3.543,3.543,0,0,1-2.564,1.045A3.469,3.469,0,0,1,869.042,529.77Z" transform="translate(-735.482 -499.457)" fill="silver"/>
</svg>
